<?xml version="1.0" encoding="utf-8"?>
<!-- Generator: Adobe Illustrator 24.1.2, SVG Export Plug-In . SVG Version: 6.00 Build 0)  -->
<svg version="1.1" id="Calque_1" xmlns="http://www.w3.org/2000/svg"
	xmlns:xlink="http://www.w3.org/1999/xlink" x="0px" y="0px"
	viewBox="0 0 512 792" style="enable-background:new 0 0 512 792;" xml:space="preserve">
<g>
	<path d="M492.2,32.6V18.8h-13.8V6H365v0l-57.6,0.1L294,19.3h-8.2h-16.6L257,7.1l-12.2,12.2h-16.6H218L204.7,6.1L147,6v0H33.6v12.8
		H19.8v13.8H7V146h0l0.1,197.6L20.3,357v8.2v16.6L8.1,394l12.2,12.2v16.6V433L7.1,446.3L7,644h0v113.4h12.8v13.8h13.8V784H147v0
		l57.6-0.1l13.3-13.2h8.2h16.6l12.2,12.2l12.2-12.2h16.6H294l13.3,13.2L365,784v0h113.4v-12.8h13.8v-13.8H505V644h0l-0.1-197.6
		L491.7,433v-8.2v-16.6l12.2-12.2l-12.2-12.2v-16.6V357l13.2-13.3L505,146h0V32.6H492.2z M488.2,22.8v9.8h-9.8v-9.8H488.2z
		 M309,10.1l91.4-0.1h74v8.8h-96.7v4h96.7v9.8h-66.5l0-0.1l-99,0.1l-11.4-11.2L309,10.1z M474.4,146l-0.1,197.7l13.5,13.6L449.2,396
		l37.7,37.7l-12.5,12.7l0.1,197.7h0v109.4H365v0l-57.7-0.1l-13.6,13.5L255,728.2l-37.7,37.7l-12.7-12.5l-57.7,0.1v0H37.6V644h0
		l0.1-197.7l-13.5-13.6L62.8,394l-37.7-37.7l12.5-12.7L37.6,146h0V36.6H147v0l57.7,0.1l13.6-13.5L257,61.8l37.7-37.7l12.7,12.5
		l57.7-0.1v0h109.4L474.4,146L474.4,146z M257,12.7l6.6,6.6h-13.1L257,12.7z M263.5,23.3l-6.6,6.6l-6.6-6.6H263.5z M244.7,23.3
		L257,35.5l12.2-12.2h7L257,42.5l-19.2-19.2H244.7z M232.1,23.3L257,48.1l24.9-24.9h8L257,56.1l-32.8-32.8H232.1z M37.6,10h74
		l91.4,0.1l11.4,11.3l-11.4,11.2l-99-0.1l0,0.1H37.6v-9.8h96.7v-4H37.6V10z M23.8,22.8h9.8v9.8h-9.8V22.8z M11,110.6v-74h8.8v96.7h4
		V36.6h9.8v66.5l-0.1,0l0.1,239l-11.2,11.4L11.1,342L11,110.6z M24.3,387.5l6.6,6.6l-6.6,6.6V387.5z M24.3,406.3L36.5,394
		l-12.2-12.2v-7L43.5,394l-19.2,19.2V406.3z M13.7,394l6.6-6.6v13.1L13.7,394z M49.1,394l-24.9-24.9v-8L57.1,394l-32.8,32.8v-8
		L49.1,394z M11,753.4v-74L11.1,448l11.3-11.4l11.2,11.4l-0.1,239l0.1,0v66.5h-9.8v-96.7h-4v96.7H11z M23.8,767.2v-9.8h9.8v9.8H23.8
		z M203,779.9l-91.4,0.1h-74v-8.8h96.7v-4H37.6v-9.8h66.5l0,0.1l99-0.1l11.4,11.2L203,779.9z M255,777.3l-6.6-6.6h13.1L255,777.3z
		 M248.5,766.7l6.6-6.6l6.6,6.6H248.5z M267.3,766.7L255,754.5l-12.2,12.2h-7l19.2-19.2l19.2,19.2H267.3z M279.9,766.7L255,741.9
		l-24.9,24.9h-8l32.8-32.8l32.8,32.8H279.9z M474.4,780h-74l-91.4-0.1l-11.4-11.3l11.4-11.2l99,0.1l0-0.1h66.5v9.8h-96.7v4h96.7V780
		z M488.2,767.2h-9.8v-9.8h9.8V767.2z M501,679.4v74h-8.8v-96.7h-4v96.7h-9.8v-66.5l0.1,0l-0.1-239l11.2-11.4l11.3,11.4L501,679.4z
		 M487.7,402.5l-6.6-6.6l6.6-6.6V402.5z M487.7,383.7L475.5,396l12.2,12.2v7L468.5,396l19.2-19.2V383.7z M498.3,396l-6.6,6.6v-13.1
		L498.3,396z M462.9,396l24.9,24.9v8L454.9,396l32.8-32.8v8L462.9,396z M500.9,342l-11.3,11.4l-11.2-11.4l0.1-239l-0.1,0V36.6h9.8
		v96.7h4V36.6h8.8v74L500.9,342z"/>
	<rect x="487.7" y="151.4" width="4" height="180.9"/>
	<rect x="487.7" y="457.7" width="4" height="180.9"/>
	<rect x="20.3" y="151.4" width="4" height="180.9"/>
	<rect x="20.3" y="457.7" width="4" height="180.9"/>
	<rect x="152.4" y="19.3" width="40.9" height="4"/>
	<rect x="318.6" y="19.3" width="40.9" height="4"/>
	<rect x="152.4" y="766.7" width="40.9" height="4"/>
	<rect x="318.6" y="766.7" width="40.9" height="4"/>
</g>
</svg>